<svg viewBox="0 0 512 512" xmlns="http://www.w3.org/2000/svg">
  <defs>
    <!-- 渐变定义 -->
    <linearGradient id="folderGradient" x1="0%" y1="0%" x2="100%" y2="100%">
      <stop offset="0%" style="stop-color:#3B82F6;stop-opacity:1" />
      <stop offset="100%" style="stop-color:#10B981;stop-opacity:1" />
    </linearGradient>
    <linearGradient id="pageGradient" x1="0%" y1="0%" x2="100%" y2="100%">
      <stop offset="0%" style="stop-color:#FFFFFF;stop-opacity:0.95" />
      <stop offset="100%" style="stop-color:#F1F5F9;stop-opacity:1" />
    </linearGradient>
    <filter id="shadow" x="-20%" y="-20%" width="140%" height="140%">
      <feDropShadow dx="4" dy="8" stdDeviation="12" flood-color="#1E293B" flood-opacity="0.3"/>
    </filter>
  </defs>

  <!-- 背景 -->
  <rect width="512" height="512" fill="none" />

<!-- 主文件夹形状 - 使用 path 创建带折角的文件夹 -->
<g filter="url(#shadow)">
  <!-- 文件夹底部 -->
  <path d="M 64 160 L 200 160 L 220 180 L 448 180 L 448 420 L 64 420 Z"
        fill="url(#folderGradient)" />
  <!-- 文件夹标签页 -->
  <path d="M 64 160 L 180 160 L 200 180 L 180 180 L 180 160 Z"
        fill="#3B82F6" />
  <!-- 文件夹前盖（稍浅） -->
  <path d="M 64 200 L 200 200 L 220 220 L 448 220 L 448 420 L 64 420 Z"
        fill="url(#folderGradient)" opacity="0.3" />
</g>

<!-- 页面/文档图标从文件夹中飞出 -->
<g transform="translate(256, 280)" filter="url(#shadow)">
  <!-- 页面主体 -->
  <rect x="-80" y="-100" width="160" height="200" rx="8"
        fill="url(#pageGradient)" />
  <!-- 页面折角 -->
  <path d="M 80 -100 L 80 -60 L 60 -60 L 60 -100 Z"
        fill="#10B981" opacity="0.8" />
  <!-- 页面内容线（模拟文字） -->
  <rect x="-60" y="-60" width="100" height="8" rx="4" fill="#CBD5E1" />
  <rect x="-60" y="-40" width="120" height="6" rx="3" fill="#E2E8F0" />
  <rect x="-60" y="-20" width="100" height="6" rx="3" fill="#E2E8F0" />
  <rect x="-60" y="0" width="110" height="6" rx="3" fill="#E2E8F0" />
  <rect x="-60" y="20" width="80" height="6" rx="3" fill="#E2E8F0" />
  <!-- 代码/文档图标 -->
  <circle cx="0" cy="70" r="24" fill="#F59E0B" opacity="0.9"/>
  <path d="M -8 62 L 0 70 L 8 62 M -8 70 L 0 78 L 8 70"
        stroke="white" stroke-width="3" fill="none" stroke-linecap="round" stroke-linejoin="round"/>
</g>

<!-- 网站/链接图标（右上角） -->
<g transform="translate(380, 120)">
  <circle r="36" fill="#F59E0B" opacity="0.9"/>
  <path d="M -12 -8 L -4 -8 L -4 4 L -12 4 Z M 4 -8 L 12 -8 L 12 4 L 4 4 Z"
        fill="white" opacity="0.9"/>
  <path d="M -4 16 L 0 20 L 4 16"
        stroke="white" stroke-width="3" fill="none" stroke-linecap="round" stroke-linejoin="round"/>
</g>

<!-- 装饰性圆点 -->
<circle cx="140" cy="130" r="8" fill="#F59E0B" opacity="0.8"/>
<circle cx="100" cy="380" r="6" fill="white" opacity="0.3"/>
<circle cx="420" cy="360" r="10" fill="#10B981" opacity="0.4"/>

</svg>